<svg width="45" height="50" viewBox="0 0 45 50" fill="none" xmlns="http://www.w3.org/2000/svg">
<path d="M44.3139 47.4397L42.1019 34.4902C41.8636 33.095 40.8738 31.9742 39.5186 31.5654L33.5526 29.7653C33.4291 28.3069 32.8311 26.9311 31.836 25.842C31.04 24.9709 30.0389 24.3366 28.9352 23.9866C29.1241 23.7771 29.2992 23.5682 29.4599 23.3639C30.8786 21.5595 31.6382 19.5716 31.8315 18.215H32.2918C33.4889 18.215 34.4628 17.2412 34.4628 16.044V14.9312C34.4628 14.1322 34.0134 13.4083 33.3375 13.0326V10.3564C33.3375 9.95205 33.0097 9.62422 32.6053 9.62422C32.2009 9.62422 31.8731 9.95195 31.8731 10.3564V13.3607C31.588 13.4103 31.2477 13.4958 30.8997 13.6424C30.8641 13.6554 30.8294 13.6704 30.7966 13.6885C30.718 13.7243 30.6392 13.7621 30.5608 13.8047V7.9041C30.5608 6.27393 29.2347 4.94775 27.6045 4.94775H25.5835C24.8864 4.94775 24.2055 5.19062 23.6658 5.63184L23.4675 5.79395C23.1032 6.0918 22.6435 6.25586 22.1728 6.25586C21.7022 6.25586 21.2424 6.0918 20.8781 5.79395L20.6799 5.63184C20.1402 5.19072 19.4593 4.94775 18.7622 4.94775H16.741C15.1108 4.94775 13.7847 6.27393 13.7847 7.9041V13.8047C13.7062 13.7621 13.6275 13.7243 13.5489 13.6885C13.5161 13.6704 13.4815 13.6554 13.4459 13.6424C13.0978 13.4958 12.7575 13.4103 12.4725 13.3607V5.76416C12.4725 3.39326 14.4014 1.46436 16.7723 1.46436H27.5731C29.9441 1.46436 31.8729 3.39326 31.8729 5.76416V6.91514C31.8729 7.31953 32.2008 7.64736 32.6051 7.64736C33.0094 7.64736 33.3373 7.31963 33.3373 6.91514V5.76416C33.3373 2.58584 30.7515 0 27.5731 0H16.7723C13.5938 0 11.0081 2.58584 11.0081 5.76416V13.0327C10.3322 13.4084 9.88281 14.1322 9.88281 14.9312V16.0441C9.88281 17.2413 10.8567 18.2151 12.0538 18.2151H12.5141C12.7073 19.5717 13.467 21.5596 14.8857 23.364C15.0462 23.5681 15.2212 23.7768 15.4099 23.9861C12.8727 24.792 11.0226 27.073 10.793 29.7653L4.82675 31.5654C3.47158 31.9742 2.48173 33.095 2.24345 34.4902L1.34521 39.7489C1.27714 40.1476 1.54511 40.5258 1.94365 40.5938C2.34209 40.6621 2.7205 40.394 2.78867 39.9954L3.68691 34.7367C3.83105 33.8926 4.42988 33.2146 5.2497 32.9674L10.7678 31.3024V32.7508C9.50292 32.9836 8.42666 33.8524 7.98339 35.0563C7.86572 35.3758 7.79257 35.7104 7.76601 36.0506L7.23271 42.8958C7.19248 43.4114 7.37089 43.9249 7.72197 44.3043C8.07304 44.6838 8.57099 44.9016 9.08808 44.9016H10.001C10.4054 44.9016 10.7332 44.5738 10.7332 44.1693C10.7332 43.7648 10.4054 43.4372 10.001 43.4372H9.08808C8.97783 43.4372 8.87177 43.3909 8.79687 43.3099C8.72206 43.229 8.68408 43.1196 8.69267 43.0098L9.22597 36.1645C9.24209 35.9583 9.28632 35.7557 9.35761 35.5622C9.66601 34.7248 10.4988 34.1577 11.4302 34.1512L11.5508 34.1503C11.5564 34.1502 11.562 34.1502 11.5676 34.1502C12.4727 34.1502 13.274 34.6635 13.612 35.4614C13.7068 35.6852 13.7644 35.9217 13.7834 36.1645L14.3169 43.0099C14.3254 43.1196 14.2874 43.229 14.2126 43.31C14.1378 43.3908 14.0316 43.4372 13.9214 43.4372H13.0085C12.6041 43.4372 12.2763 43.7649 12.2763 44.1693C12.2763 44.5737 12.6041 44.9016 13.0085 44.9016H13.9214C14.4385 44.9016 14.9365 44.6839 15.2875 44.3043C15.6387 43.9247 15.8171 43.4113 15.7769 42.8959L15.2434 36.0506C15.2121 35.65 15.1169 35.2595 14.9603 34.89C14.478 33.7517 13.4467 32.9602 12.232 32.746V30.8606L14.749 30.1012C14.978 30.5835 15.4318 31.6258 16.3308 33.8726C17.2367 36.1396 18.3628 39.0453 19.4428 41.8701C19.4505 41.8938 19.4594 41.917 19.4693 41.9396C20.19 43.8255 20.8892 45.6726 21.4871 47.2659C21.5943 47.5517 21.8675 47.7409 22.1727 47.7409C22.4778 47.7409 22.751 47.5517 22.8582 47.2659C23.456 45.6726 24.1552 43.8255 24.876 41.9396C24.886 41.917 24.8948 41.8937 24.9025 41.8701C25.9817 39.047 27.1072 36.1431 28.0128 33.8768C28.9129 31.6271 29.3671 30.5839 29.5962 30.1012L32.1132 30.8606V35.1854C30.3692 35.5241 29.0482 37.0622 29.0482 38.9038C29.0482 40.9928 30.7477 42.6924 32.8368 42.6924C34.9259 42.6924 36.6254 40.9929 36.6254 38.9038C36.6254 37.0683 35.3131 35.5339 33.5775 35.1885V31.3025L39.0957 32.9675C39.9155 33.2147 40.5143 33.8927 40.6585 34.7368L42.8704 47.6863C42.9071 47.9011 42.85 48.111 42.7095 48.2775C42.569 48.4439 42.3717 48.5357 42.1538 48.5357H2.1915C1.97363 48.5357 1.77636 48.444 1.63584 48.2775C1.49541 48.111 1.43818 47.9012 1.4749 47.6863L2.20488 43.4127C2.27294 43.0141 2.00498 42.6358 1.60644 42.5678C1.208 42.4994 0.829586 42.7677 0.761422 43.1662L0.0314412 47.4398C-0.0774455 48.0777 0.0994101 48.7272 0.516598 49.2219C0.93398 49.7164 1.54443 50 2.1915 50H42.1538C42.8009 50 43.4114 49.7164 43.8287 49.2218C44.2459 48.7271 44.4227 48.0776 44.3139 47.4397ZM31.8817 14.8524C32.2719 14.7552 32.585 14.7569 32.5886 14.757C32.7147 14.7587 32.8374 14.7292 32.9464 14.6721C32.979 14.7532 32.9982 14.8404 32.9982 14.9312V16.0441C32.9982 16.4338 32.6812 16.7508 32.2916 16.7508H31.8817V14.8524ZM12.4636 16.7508H12.0537C11.6641 16.7508 11.3471 16.4338 11.3471 16.0441V14.9312C11.3471 14.8404 11.3664 14.7532 11.3989 14.6722C11.5078 14.7293 11.6305 14.7588 11.7567 14.757C11.7623 14.758 12.0746 14.7563 12.4636 14.8528V16.7508ZM13.9279 17.5718V15.6481C14.1498 15.7146 14.3925 15.7056 14.6165 15.6121C15.0008 15.4518 15.249 15.0794 15.249 14.6633V7.9041C15.249 7.08145 15.9184 6.41211 16.741 6.41211H18.762C19.1222 6.41211 19.474 6.5376 19.7528 6.76553L19.9511 6.92764C20.5762 7.43877 21.3651 7.72012 22.1727 7.72012C22.9802 7.72012 23.7691 7.43867 24.3942 6.92764L24.5925 6.76553C24.8712 6.5376 25.2231 6.41211 25.5833 6.41211H27.6043C28.4269 6.41211 29.0963 7.08145 29.0963 7.9041V14.6634C29.0963 15.0794 29.3445 15.4519 29.7288 15.6122C29.8571 15.6657 29.9915 15.6917 30.1247 15.6917C30.224 15.6917 30.3225 15.6771 30.4174 15.6488V17.5718C30.4174 18.6408 29.6783 20.7168 28.3086 22.4588C27.8549 23.0358 27.2717 23.6558 26.5536 24.1976C26.5309 24.2128 26.5091 24.2293 26.4883 24.2469C25.3759 25.0693 23.9455 25.6994 22.1727 25.6994C20.3998 25.6994 18.9694 25.0693 17.8569 24.2468C17.8361 24.2293 17.8144 24.2128 17.7918 24.1977C17.0737 23.6558 16.4905 23.0358 16.0367 22.4588C14.6671 20.7169 13.9279 18.6408 13.9279 17.5718ZM26.9695 29.4014L22.1727 32.9867L17.3758 29.4014C17.8515 28.7968 18.118 28.0207 18.118 27.3281V26.1479C19.246 26.7545 20.592 27.1639 22.1727 27.1639C23.7533 27.1639 25.0994 26.7545 26.2273 26.1479V27.3281C26.2273 28.0207 26.4938 28.7968 26.9695 29.4014ZM16.1538 28.5841C15.7628 28.4352 15.3293 28.4107 14.9192 28.522C14.9013 28.5262 14.8837 28.531 14.8666 28.536L12.337 29.2993C12.7648 27.1956 14.473 25.5212 16.6536 25.1969V27.3281C16.6536 27.7875 16.4485 28.2624 16.1538 28.5841ZM18.141 34.4618C18.1396 34.4584 18.1383 34.455 18.137 34.4517C18.0999 34.3578 18.0633 34.2652 18.0269 34.1737C18.0204 34.1571 18.0139 34.1406 18.0073 34.1242C17.9718 34.0347 17.9365 33.9458 17.9018 33.8584C17.8993 33.8522 17.8969 33.8462 17.8944 33.8399C17.7859 33.5672 17.6813 33.3056 17.5808 33.0549C17.5734 33.0367 17.5661 33.0183 17.5588 33.0002C17.5299 32.9283 17.5015 32.8575 17.4732 32.7876C17.4629 32.7619 17.4526 32.7365 17.4424 32.7111C17.415 32.6434 17.3879 32.576 17.3611 32.5101C17.3531 32.4903 17.3453 32.4712 17.3374 32.4516C17.2889 32.3318 17.2414 32.2151 17.1951 32.1014C17.1826 32.0706 17.1698 32.0393 17.1574 32.0089C17.1393 31.9646 17.1216 31.9214 17.1038 31.8779C17.0847 31.8311 17.0655 31.7846 17.0468 31.7389C17.0397 31.7218 17.0324 31.7037 17.0254 31.6867C17.0197 31.673 17.0145 31.6604 17.009 31.6469C16.9244 31.4414 16.844 31.2478 16.7678 31.0656C16.7672 31.0642 16.7665 31.0627 16.7659 31.0612C16.7253 30.9643 16.6855 30.8695 16.6474 30.7793C16.6275 30.7325 16.608 30.6865 16.5889 30.6414L20.7143 33.7248L18.9905 34.4571C18.9875 34.4584 18.9844 34.4597 18.9813 34.461L18.2616 34.7668C18.2208 34.6636 18.1809 34.5624 18.141 34.4618ZM19.8881 38.945C19.7435 38.5697 19.5977 38.1923 19.4518 37.8152C19.2234 37.2255 19.0054 36.6647 18.7967 36.1306L19.0699 36.0145L20.1863 37.3122L19.8881 38.945ZM22.1868 44.896C22.1658 44.8524 22.1408 44.8113 22.1119 44.773C21.781 43.8985 21.3611 42.792 20.8964 41.5745L21.58 37.8318H22.7653L23.4489 41.5745C22.9619 42.85 22.5245 44.0033 22.1868 44.896ZM23.0399 36.3676H21.3054L20.4846 35.4135L22.1727 34.6964L23.8607 35.4135L23.0399 36.3676ZM24.8935 37.8152C24.7476 38.1923 24.6019 38.5697 24.4572 38.945L24.159 37.3121L25.2754 36.0144L25.5486 36.1305C25.3399 36.6646 25.1219 37.2255 24.8935 37.8152ZM27.698 30.7793C27.6618 30.8648 27.6241 30.9546 27.5857 31.0462C27.5808 31.0581 27.5757 31.0701 27.5707 31.0821C27.5327 31.173 27.494 31.2657 27.454 31.3623C27.4514 31.3687 27.4486 31.3754 27.446 31.3818C27.4114 31.4651 27.376 31.5511 27.3399 31.6387C27.3332 31.6551 27.3268 31.6702 27.3201 31.6867C27.3121 31.7063 27.3035 31.7271 27.2954 31.747C27.2794 31.786 27.2631 31.8259 27.2467 31.8657C27.2266 31.9148 27.2065 31.9638 27.1859 32.0141C27.1794 32.0301 27.1726 32.0468 27.166 32.0629C27.115 32.1878 27.0627 32.3165 27.0092 32.4487C27.0008 32.4694 26.9925 32.4897 26.9841 32.5107C26.9576 32.5761 26.9307 32.6428 26.9036 32.7099C26.8931 32.7361 26.8824 32.7623 26.8718 32.7889C26.8438 32.8581 26.8156 32.9282 26.7871 32.9993C26.7791 33.0191 26.771 33.0395 26.763 33.0594C26.6637 33.3066 26.5606 33.5646 26.4537 33.8333C26.4502 33.8422 26.4467 33.8509 26.4432 33.8599C26.4086 33.9467 26.3736 34.035 26.3383 34.1239C26.3317 34.1405 26.3251 34.1571 26.3184 34.1738C26.2819 34.2658 26.2451 34.3588 26.2078 34.4532C26.2071 34.455 26.2064 34.4567 26.2058 34.4584C26.1655 34.5602 26.1251 34.6625 26.0839 34.767L25.3635 34.4609C25.3609 34.4599 25.3584 34.4588 25.3559 34.4577L23.6311 33.725L27.7566 30.6416C27.7373 30.6865 27.7178 30.7324 27.698 30.7793ZM29.4787 28.5361C29.4786 28.5361 29.4784 28.536 29.4783 28.536C29.4777 28.5358 29.477 28.5357 29.4765 28.5354C29.0517 28.408 28.5985 28.4291 28.1916 28.5841C27.8968 28.2624 27.6918 27.7875 27.6918 27.3281V25.1958C29.886 25.5192 31.5891 27.1779 32.0113 29.3002L29.4787 28.5361ZM35.161 38.9038C35.161 40.1854 34.1184 41.228 32.8368 41.228C31.5553 41.228 30.5126 40.1854 30.5126 38.9038C30.5126 37.6222 31.5553 36.5796 32.8368 36.5796C34.1184 36.5796 35.161 37.6222 35.161 38.9038Z" fill="#022F59"/>
</svg>
