<svg width="56" height="50" viewBox="0 0 56 50" fill="none" xmlns="http://www.w3.org/2000/svg">
    <path d="M49.732 32.1118L39.5313 35.6187C39.5766 35.3676 39.6019 35.1114 39.6019 34.8515C39.6019 32.4651 37.6606 30.5234 35.2738 30.5234H28.2668C28.0808 30.5234 27.8974 30.4756 27.7355 30.3843L22.0189 27.1691C20.8887 26.5321 19.6042 26.1953 18.3045 26.1953H10.6339C10.1876 24.9361 8.98466 24.0316 7.57422 24.0316H1.08203C0.484378 24.0316 0 24.516 0 25.1136V44.5898C0 45.1874 0.484378 45.6718 1.08203 45.6718H7.57422C8.95254 45.6718 10.1343 44.8058 10.6035 43.5893C11.8284 43.7415 13.2456 44.1037 14.1361 44.638L19.7948 48.0333C21.9386 49.3199 24.393 49.9999 26.8936 49.9999C28.875 49.9999 30.7948 49.584 32.6 48.7641L52.7955 39.8715C55.0323 38.9641 56.1367 36.2806 54.8581 33.9153C53.9177 32.1747 51.7152 31.4004 49.732 32.1118ZM8.65625 42.4308C8.65372 43.0251 8.16891 43.5078 7.57422 43.5078H2.16406V26.1957H7.57422C8.17061 26.1957 8.65625 26.6809 8.65625 27.2777V42.4308ZM51.9734 37.8702C51.962 37.8744 51.9506 37.8795 51.9392 37.8842C51.9392 37.8842 31.7137 46.7898 31.7099 46.7915C30.1861 47.4846 28.5656 47.8359 26.8936 47.8359C24.7853 47.8359 22.7159 47.2627 20.9086 46.1778L15.2495 42.7825C14.0381 42.0559 12.3035 41.6129 10.8203 41.4354V28.3597H18.3045C19.2327 28.3597 20.1499 28.5998 20.9576 29.055L26.6742 32.2703C27.1586 32.5433 27.7097 32.6879 28.2668 32.6879H35.2738C36.467 32.6879 37.4379 33.6583 37.4379 34.8519C37.4379 36.0409 36.4666 37.016 35.2738 37.016H24.2743C23.6766 37.016 23.1922 37.5004 23.1922 38.098C23.1922 38.6953 23.6766 39.1796 24.2743 39.1796H35.2738C35.9835 39.1796 36.6821 39.0034 37.3022 38.6729C37.3022 38.6729 50.4535 34.152 50.4586 34.1503C51.4282 33.8003 52.5246 34.1486 52.9544 34.9441C53.599 36.1364 53.066 37.4327 51.9734 37.8702Z" fill="#022F59"/>
    <path d="M31.5137 26.2452C31.7174 26.4214 31.9697 26.5093 32.2225 26.5093C32.4752 26.5093 32.728 26.4214 32.9313 26.2452C41.7596 18.594 47.2205 14.722 47.2205 8.70486C47.2205 3.94477 43.8505 0 39.1162 0C36.0071 0 33.6262 1.79211 32.0927 4.48155C30.5627 1.79803 28.1843 0 25.0705 0C21.4461 0 18.416 2.34877 17.3509 5.9833C17.1827 6.55686 17.5115 7.15789 18.0851 7.32611C18.6586 7.49434 19.2597 7.1655 19.4275 6.59194C20.2157 3.90208 22.4305 2.16406 25.0705 2.16406C28.1573 2.16406 30.3226 4.90507 31.05 7.45714C31.1798 7.92588 31.6067 8.25049 32.0927 8.25049C32.5792 8.25049 33.0057 7.92588 33.1354 7.45714C33.1502 7.40431 34.6533 2.16406 39.1162 2.16406C42.5026 2.16406 45.0564 4.97565 45.0564 8.70486C45.0564 13.5182 40.3512 16.9883 32.2216 23.9979C27.2684 19.7441 23.3338 16.7499 21.0974 13.8208C20.7348 13.3458 20.056 13.2545 19.5809 13.6171C19.1058 13.9798 19.0149 14.6586 19.3772 15.1341C21.898 18.4355 26.1534 21.5988 31.5137 26.2452Z" fill="#022F59"/>
</svg>
