<svg width="50" height="50" viewBox="0 0 50 50" fill="none" xmlns="http://www.w3.org/2000/svg">
<path d="M49.9641 47.5029L47.4729 35.0111C47.2027 33.6562 46.0804 32.5679 44.5441 32.1709L33.3611 29.281C32.8678 29.1536 32.356 29.209 31.9309 29.4078C31.5335 29.1046 31.2437 28.5863 31.2437 28.1063V25.7153C31.2725 25.694 31.3015 25.6727 31.3302 25.6515C31.3732 25.6198 31.4189 25.5855 31.4659 25.5498H32.5612C34.0817 25.5498 35.4921 25.027 36.5326 24.0776C37.5731 23.1281 38.0934 21.8896 37.9973 20.59L37.6938 16.4824V16.4209C37.6938 16.3088 37.6838 16.1987 37.6648 16.091L37.3248 11.4908C37.295 11.0884 36.8889 10.783 36.4203 10.8082C35.9504 10.8337 35.5937 11.1806 35.6234 11.583L35.8245 14.3048C35.6022 14.2509 35.3679 14.2213 35.1256 14.2213H35.0781C34.8276 13.8957 34.412 13.671 33.9232 13.6333C25.0747 12.9513 22.5272 10.688 20.6669 9.03523C20.2803 8.69177 19.6461 8.6655 18.7822 8.9572C17.2805 9.46414 14.7241 11.1024 14.6682 14.0277C14.6682 14.0317 14.6681 14.0357 14.6681 14.0397V14.2283C14.4987 14.2399 14.334 14.2661 14.1753 14.3046L14.4382 10.7472C14.5781 8.85467 15.6905 7.16765 17.4649 6.0947L17.5295 6.23913C17.9574 7.19685 19.0493 7.84031 20.2466 7.84031H29.9758C31.173 7.84031 32.2649 7.19685 32.6929 6.23913L32.7079 6.20573C33.6289 6.80017 34.3684 7.57117 34.8719 8.47224C35.0184 8.73425 35.3234 8.88728 35.6414 8.88728C35.7648 8.88728 35.8901 8.86414 36.0088 8.81551C36.4335 8.64148 36.613 8.20545 36.4097 7.84177C35.7161 6.60066 34.6616 5.55876 33.3372 4.79713L33.9242 3.48336C34.1473 2.98394 34.1028 2.42877 33.8021 1.96021C33.5014 1.49175 32.9782 1.16197 32.3665 1.05562L27.4742 0.204639C25.9061 -0.0682131 24.3162 -0.0682131 22.7481 0.204639L17.8559 1.05542C17.2442 1.16177 16.7209 1.49146 16.4202 1.96011C16.1195 2.42877 16.0749 2.98385 16.2982 3.48326L16.8402 4.69625C14.4369 6.00583 12.919 8.18884 12.7368 10.6548L12.3329 16.12C12.317 16.2186 12.3061 16.3184 12.3061 16.4206V16.4821L12.0026 20.5897C11.9065 21.8892 12.4267 23.1279 13.4672 24.0773C14.5078 25.0267 15.9182 25.5495 17.4386 25.5495H18.534C18.5809 25.5851 18.6267 25.6195 18.6697 25.6512C18.6984 25.6724 18.7273 25.6937 18.7562 25.715V28.106C18.7562 28.586 18.4664 29.1044 18.0689 29.4075C17.6438 29.2087 17.1319 29.1531 16.6389 29.2806L5.45578 32.1707C3.91951 32.5676 2.79723 33.656 2.52689 35.0108L1.59115 39.7033C1.51191 40.1008 1.82386 40.478 2.28791 40.5459C2.75151 40.6143 3.19242 40.3467 3.27166 39.9491L4.2074 35.2566C4.36805 34.4514 5.03506 33.8045 5.94811 33.5686L17.1313 30.6785C17.2045 30.6596 17.2824 30.6883 17.3169 30.7465C17.3169 30.7466 17.3172 30.7468 17.3172 30.7469L22.6565 39.7819C22.797 40.0197 22.9813 40.2294 23.1987 40.4051C23.6769 40.7921 24.3151 41.0154 24.9997 41.0154C25.4354 41.0154 25.8522 40.925 26.2211 40.7594C26.6953 40.5467 27.09 40.2098 27.343 39.7818L32.6826 30.7465C32.717 30.6881 32.795 30.6591 32.8683 30.6785L44.0514 33.5685C44.9646 33.8044 45.6316 34.4513 45.7921 35.2565L48.2833 47.7482C48.3372 48.0183 48.1967 48.2093 48.1081 48.2991C48.0195 48.389 47.8234 48.5397 47.5036 48.5397H42.223L40.8298 41.5542C40.7506 41.1567 40.3105 40.8892 39.8461 40.9574C39.382 41.0253 39.0701 41.4025 39.1493 41.8L40.4935 48.5396H9.50627L10.8504 41.8C10.9297 41.4025 10.6177 41.0253 10.1537 40.9574C9.68984 40.8894 9.24916 41.1566 9.16992 41.5542L7.77673 48.5397H2.496C2.17618 48.5397 1.97995 48.389 1.89147 48.2991C1.803 48.2093 1.66253 48.0182 1.71634 47.7482L2.58356 43.3997C2.6628 43.0022 2.35085 42.625 1.8868 42.5571C1.42297 42.4889 0.982295 42.7564 0.903053 43.1539L0.0358333 47.5024C-0.0882181 48.1247 0.113137 48.7584 0.588364 49.2408C1.06359 49.7232 1.75887 50 2.496 50C2.49691 50 2.496 50 2.49691 50H47.5041C48.2411 50 48.9364 49.7232 49.4117 49.2408C49.8868 48.7588 50.0883 48.1251 49.9641 47.5029ZM17.9145 2.66363C17.9491 2.60982 18.0315 2.51519 18.1953 2.48668L23.0875 1.6358C23.7591 1.5191 24.4351 1.4607 25.1113 1.4607C25.7873 1.4607 26.4637 1.5191 27.135 1.6358L32.0273 2.48668C32.0273 2.48668 32.0273 2.48668 32.0274 2.48677C32.1911 2.51519 32.2736 2.60982 32.3081 2.66363C32.3427 2.71754 32.3918 2.82779 32.3321 2.96158L31.1008 5.71725C30.9236 6.11374 30.4715 6.38015 29.9759 6.38015H20.2467C19.7511 6.38015 19.299 6.11374 19.1218 5.71725L17.8906 2.96158C17.8308 2.82789 17.88 2.71754 17.9145 2.66363ZM36.2959 20.6822C36.3618 21.5751 36.0045 22.4259 35.2896 23.0781C34.7091 23.6078 33.961 23.9443 33.141 24.052C34.0782 23.0582 34.9985 21.7451 35.2582 20.246C35.6117 20.2306 35.9456 20.1524 36.2474 20.0262L36.2959 20.6822ZM14.7104 23.0781C13.9955 22.4259 13.6382 21.575 13.7041 20.6822L13.7525 20.0263C14.0543 20.1525 14.3883 20.2306 14.7417 20.2461C15.0014 21.7451 15.9217 23.0582 16.8589 24.0521C16.0389 23.9443 15.2908 23.6078 14.7104 23.0781ZM25.9291 38.9418L25.8221 39.1227C25.8069 39.1484 25.7892 39.1722 25.7715 39.1959C25.7658 39.2034 25.7612 39.2118 25.7554 39.2191C25.7447 39.2325 25.732 39.244 25.7205 39.2567C25.6796 39.3015 25.6351 39.3433 25.5851 39.3788C25.5746 39.3862 25.5627 39.3922 25.5519 39.3992C25.3969 39.499 25.2071 39.5555 24.9999 39.5555C24.6453 39.5555 24.3379 39.3937 24.1777 39.1228L20.6377 33.1323H29.3624L25.9291 38.9418ZM30.2252 31.672H19.7747L19.1163 30.5578C19.9195 29.9823 20.4612 29.0427 20.4612 28.1062V26.8464C21.5771 27.4611 22.9735 27.9378 24.9906 27.9572C24.9938 27.9572 24.9968 27.9572 25 27.9572C25.0032 27.9572 25.0063 27.9572 25.0095 27.9572C27.0266 27.9378 28.423 27.4611 29.5389 26.8465V28.1063C29.5389 29.0429 30.0804 29.9824 30.8838 30.5579L30.2252 31.672ZM30.2178 24.5449C28.6415 25.7076 27.4262 26.4718 25 26.4969C22.574 26.4718 21.3586 25.7075 19.7822 24.5449C17.6896 23.0017 16.416 21.1169 16.3755 19.5031C16.3656 19.1062 15.9869 18.7887 15.5233 18.7887H14.8745C14.3984 18.7887 14.0112 18.457 14.0112 18.0493V16.4209C14.0112 16.3868 14.0149 16.3536 14.0201 16.3207C14.0225 16.3096 14.0243 16.2983 14.0262 16.2871C14.0999 15.9432 14.4519 15.6815 14.8746 15.6815H15.5208C15.9916 15.6815 16.3732 15.3547 16.3732 14.9515V14.0461C16.4243 11.5749 18.88 10.4201 19.6577 10.2409C22.1576 12.4251 25.2299 14.4113 33.6397 15.0775C33.7094 15.4206 34.0589 15.6815 34.4795 15.6815H35.1257C35.5483 15.6815 35.9002 15.9432 35.9741 16.2871C35.976 16.2984 35.9778 16.3097 35.9802 16.3207C35.9854 16.3535 35.9891 16.3868 35.9891 16.4209V18.0493C35.9891 18.4569 35.6019 18.7887 35.1258 18.7887H34.477C34.0133 18.7887 33.6347 19.1061 33.6248 19.5031C33.5841 21.1168 32.3105 23.0016 30.2178 24.5449Z" fill="#02396D"/>
</svg>
